<svg xmlns="http://www.w3.org/2000/svg" xmlns:xlink="http://www.w3.org/1999/xlink" id="Capa_1" x="0px" y="0px" viewBox="0 0 1290 1331" style="enable-background:new 0 0 1290 1331;" xml:space="preserve">
<style type="text/css">
	.st0{fill-rule:evenodd;clip-rule:evenodd;fill:#E4EFF9;fill-opacity:0.349;}
	.st1{fill-rule:evenodd;clip-rule:evenodd;fill:#0C2868;}
	.st2{fill-rule:evenodd;clip-rule:evenodd;fill:#FEFEFE;}
	.st3{fill-rule:evenodd;clip-rule:evenodd;fill:#D7398A;}
	.st4{fill-rule:evenodd;clip-rule:evenodd;fill:#1BB6C9;}
	.st5{fill-rule:evenodd;clip-rule:evenodd;fill:#F5C875;}
	.st6{fill-rule:evenodd;clip-rule:evenodd;fill:#5485BE;}
</style>
<g id="Capa_x0020_1">
	<g id="_1883703953488">
		<path class="st0" d="M182.4,1152.1C30.3,1065.4-2.3,998,0.1,950.2c4.7-89.2,130.7-98,202.2-258.6c23-51.6,24.2-82.6,40.8-135.1    c11.3-35.2,18.8-53,29-73.8c16.4-33.3,46.7-82,105.1-130.7c36-33.9,78.4-60.2,124.8-77.6c87.9-32.5,164.3-21.1,200.8-16.2    c342.1,45.1,484.3,452.9,492.9,478.9c15.5,46.8,26.2,95,31.9,144c-9.6,30.5-25.7,58.5-47.1,82.2c-71.2,76.9-165.9,58.7-261.6,84.5    c-196.3,52.9-196.5,236.8-348,276.4C495.4,1343.8,373.7,1330,182.4,1152.1L182.4,1152.1z"></path>
		<path class="st1" d="M1068.8,190.4c-3.9,42.7-6,67.7-3.6,111.6c0.7,13,1.8,26.5,0.9,40.2L1065,507c0.5,10.9,2.6,27.8,2.5,38.9    l-45.5-44.1c-9.7-9.4-36.3-39.5-51.8-40.8c-6-0.6-6.2,0.5-11.3,1.2c-11,18.4,6.3,44.6,3.8,80.8c-21.4-13.9-102.4-88.3-119.9-82.6    c-12.9,4.2-9.1,8.9-6.1,31.6c1.5,11.9,4.1,29,4,39.7c-10.2-3.8-35.6-38.7-66.2-57.6c-9.5-5.8-33.6-24.5-38.1-1.3    c-3.1,16.3-4,44.5-5.6,62.2c-8.5-1.5-14.4-6.5-22.4-10c-34.1-14.8-64.3-24.5-97.5-37.9c-38.2-15.4-15.7,34.5-17.1,55.4l-77.7-46    c-8.7-4-20.2-12.2-28.7-13c-16.9-1.6-11.7,31.6-16.8,46.3c-4.9,14-16.4,34.4-18.5,46.6c-14.6-9.5-85.5-50.3-93.7-51.1    c-16.2-1.5-9.5,32.6-11.7,54.8c-2.2,22.7-4.8,46.3-6.4,69c-1,14.2,0.8,12.2-0.2,26.4l-4.4,98c-0.7,41.8,2.4,81.6-0.5,125.4    c-2.7,39.9,3.9,79.2-1.3,136.2c-0.9,9.7-6.7-0.2-8.9,23.8c-0.9,9.4,20.7,12.1,20.7,12.1l94.3-1.9c45.1-0.8,79.3,2,127.4-2    c79.2-6.5,164.3-10.5,241.9-19.5c87.8-10.2,151.5-17.1,239.4-20.1c23.8-0.7,39.2-0.2,61.3-2.6c20.1-2.2,41.4-4.6,61.8-4.5    c124.7,0.9,124.3,32.4,114.8-71c-7.1-77-18.7-119.9-34.2-194.8c-6-29.1-29.1-117.1-31.3-135.8c-1.5-12.6,2.7-21.8-0.5-32.4    c-10.3-34.6-11.2-107.5-15.4-146.9l-13.6-117.7c-11-152.3-14.1-132.9-61.5-137.3C1112.3,183.2,1070.4,173.4,1068.8,190.4    L1068.8,190.4z"></path>
		<path class="st2" d="M1089.8,205.7c11.1,1.1,22.3,2.3,33.3,3.2c12.8,1,16.9-0.8,31.2,0.5c-0.1,14.3,5.4,33.1,6.6,47.9    c1.5,18.4,1.7,33.1,3,52.8c2.4,35.7,7.5,66.5,10.8,101.6c1.9,20.7,10.9,165.4,14.3,178.5c4.7,18.3,8.5,0,11.5,19.2    c1.3,8.6,1.6,14.8,3,24.1l42.2,212.8c7.5,49.8,9.1,43,13.2,99.6c1.2,16.6,4.4,34.7,4.2,51.8c-138.2-12.6-130,3.8-230.4,1.3    c-39.9-1-173.3,11.8-222.9,17.6c-59.5,7-271,23-337.8,22.3c-20.9-0.2-41.2-3.3-61.9-3c-16.7,0.3-41.2,2.6-58.6,1    c4-43.8-0.5-87.1,2.1-120.6c2.5-31.6,0.3-94.3,1.7-116.1c2.7-40.6,0.7-80.6,4.6-122.6c2.7-29.1,10.5-99.2,7-124.6l42.5,24    c53.2,33.2,48.9,39,70.9-10.8c8.1-18.3,13.4-30.7,15.7-55.1l55.8,33.5c2.8,1.9,15.8,13.4,15.9,13.4c15.1,1.4,7.7-4.8,19.9,3.7    c7,4.9,29,23.9,31.3-1.3c1.1-12.1-4.4-34.2-6.6-49.8c7.1,4.2,22.1,8.6,31.5,12.6c21.8,9.4,43.3,15.6,64,26.7    c50,26.9,44.2,23,51.6-57.2c14.6,4.8,35.7,29.9,46.9,40.8c13.8,13.3,33.8,39.9,48.9,35.1c13.8-4.3,8.6-12.1,7-34.5l-4.3-43.5    c11.5,3.8,36.3,26.1,46.9,34.7l66.5,55.3c30.3,9,12.8-59.4,9.2-85.5c7.9,2.9,18.7,15.8,25.1,22c8.3,8.1,15.8,17.1,24.2,25    c12.1,11.2,37.9,45.9,53.8,47.4c21.1,2,10.7-45.7,9.5-57.1c-3.3-31.6-4.6-108.7-2.6-139.1l-1.1-93.3c-1.1-14.2,0.5-30.5,0.2-47.3    C1089.5,244.8,1091.6,211.1,1089.8,205.7L1089.8,205.7z"></path>
		<path class="st3" d="M966.9,165.1c73.3,26.3,83.4-43.5,140.4-28.5c17.9,4.7,14.6,12.8,31.6,7.4c56.7-18,27.7-112.7-31-120.4    c-27.1-3.5-47.4,2.3-81.7,16.9C902.4-78.5,825.8,131.6,966.9,165.1z"></path>
		<path class="st4" d="M716.2,102.5c25.8,60.8,117.3,63.8,138.5,11c9.3-44-24.9-28.7-26.4-51.4c-2.3-34-29-76-72.6-57.5    C717.6,20.8,700.4,65.5,716.2,102.5L716.2,102.5z"></path>
		<path class="st2" d="M976.7,141.1c53.6,17.5,76.5-32.4,118.2-22.6c13.2,3.1,10.6,8.9,23.2,4.8c42-13.6,12-79.8-31-84.3    c-19.9-2.1-34,6.8-59.4,17.6C931-32.7,869.5,115.6,976.7,141.1L976.7,141.1z"></path>
		<path class="st2" d="M734.8,95.6c18.1,42.6,82.2,44.6,96.9,7.7c6.5-30.8-17.4-20.1-18.4-36c-1.6-23.8-20.3-53.2-50.8-40.2    C735.8,38.4,723.8,69.6,734.8,95.6z"></path>
		<polygon class="st5" points="480,643.7 390.4,655.4 392.8,763.9 484.7,761.6   "></polygon>
		<polygon class="st5" points="519.9,649.5 610.2,649.9 621.6,757.8 530.1,767.1   "></polygon>
		<polygon class="st5" points="758.1,643.7 668.6,655.4 671,763.9 762.8,761.6   "></polygon>
		<polygon class="st5" points="798.1,649.5 888.4,649.9 899.8,757.8 808.3,767.1   "></polygon>
		<polygon class="st5" points="1036.3,643.7 946.7,655.4 949.1,763.9 1041.1,761.6   "></polygon>
		<polygon class="st5" points="1076.2,649.5 1166.6,649.9 1178,757.8 1086.4,767.1   "></polygon>
		<polygon class="st6" points="595.3,813.4 395.1,836.3 400.4,1046.8 605.9,1042.3   "></polygon>
	</g>
</g>
</svg>