<svg xmlns="http://www.w3.org/2000/svg" xmlns:xlink="http://www.w3.org/1999/xlink" id="Capa_1" x="0px" y="0px" viewBox="0 0 1227 1723" style="enable-background:new 0 0 1227 1723;" xml:space="preserve">
<style type="text/css">
	.st0{fill-rule:evenodd;clip-rule:evenodd;fill:#E4EFF9;fill-opacity:0.349;}
	.st1{fill-rule:evenodd;clip-rule:evenodd;fill:#F5C875;}
	.st2{fill-rule:evenodd;clip-rule:evenodd;fill:#0C2868;}
	.st3{fill-rule:evenodd;clip-rule:evenodd;fill:#FEFEFE;stroke:#373435;stroke-width:2.3317;stroke-miterlimit:205.5965;}
	.st4{fill-rule:evenodd;clip-rule:evenodd;}
	.st5{fill-rule:evenodd;clip-rule:evenodd;fill:#D7398A;stroke:#373435;stroke-width:2.3317;stroke-miterlimit:205.5965;}
	.st6{fill-rule:evenodd;clip-rule:evenodd;fill:#5485BE;}
</style>
<g id="Capa_x0020_1">
	<g id="_1919716689280">
		<path class="st0" d="M182.3,899.8C30.2,813.1-2.3,745.8,0.1,698.1c4.8-89.1,130.7-98,202.1-258.5c23-51.7,24.1-82.7,40.8-135.1    c11.2-35.2,18.7-53,29-73.8c16.4-33.3,46.6-81.9,105.1-130.7c36-33.9,78.4-60.3,124.7-77.6C589.6-10,666.1,1.5,702.5,6.3    C1044.4,51.5,1186.6,459,1195.1,485c15.5,46.7,26.2,95,31.9,143.8c-9.6,30.5-25.6,58.6-47.2,82.1    c-71.1,76.9-165.8,58.7-261.5,84.5c-196.1,52.9-196.3,236.7-347.7,276.3C495.1,1091.4,373.5,1077.6,182.3,899.8L182.3,899.8z"></path>
		<path class="st1" d="M938.3,218.6l22.3-157.8l-26.3,2.6c-33.5,138.5-81.1,194.4,28.8,218.9l171.2,20.5l11.8-65.7    C1076.9,230.9,1007.6,224.8,938.3,218.6L938.3,218.6z"></path>
		<path class="st2" d="M989.8,75.5c22.6,0,21.2,5.7,40.5,29.7l62.7,77.9c11,13.1,21.8,25.6,30.9,39.3c-27.2,0-134.6-8.8-163-16.1    c-11-2.8-9.8-0.4-3.9-29.5c2.8-13.5,4-24.3,8.5-36.2L989.8,75.5L989.8,75.5z M1133.6,260.8L1063,825.9    c-4.1,44.4-13.5,101-15.6,144.1c-1.1,20.9-3.2,30.7-3.2,51.1c-51.7-12.1-197-38.6-255.6-38.4c-94.1,0.3-248.4-26.9-342.5-50.5    c-21.5-5.4-90.3-9.1-106.4-17.6l4.8-171.6l7-117.6c7.7-69.4,0-249.1,2.6-336c0.8-25.6,6.7-48.1,6.5-76.5l3.2-83    c-0.2-17,0.7-27.2,2.2-39.3c6.3-50-19-27.8,87.2-27.9c62.1,0,96.2,3.2,159.7,3.2c115.5,0,221.8,3.1,335.4,3.1    c-10.8,46.2-17.6,31.7-36.2,133.4c-8.7,47.3,31.5,38.3,114.7,50.1L1133.6,260.8L1133.6,260.8z M319,771.9    c-6.4,91.6-31.3,157.7,3,186.4c19.2,16,338.1,65.8,367.5,66.1l159.6,9.6c50.7,3.4,145,19.5,193,34.1c15.7,4.8,30.6,3,37.8-11.1    l40.4-413.3c3.7-35.2,5-70.8,9.1-102.6l32.4-251.9c1.7-9.9,2.1-15.2,4-24.7c6.1-28.7,18.1-30.5-24.9-87.6l-81.6-103.7    c-55.6-61.7-35.7-37.9-123.9-40.6l-307-2.9c-48.8-0.4-161.9,5.5-199.6-0.4l-36.3-1.7c-47.4-2.3-50.6-17.5-57,45.2    c-12.3,119.3-10,357.9-10,485.1C325.4,632.1,319,696.4,319,771.9L319,771.9z"></path>
		<polygon class="st3" points="939.6,218.8 980.4,51.4 349.3,43.2 322.8,941.8 1049.8,1037.8 1151.9,239.3   "></polygon>
		<path class="st4" d="M1060.3,1366.8c-6.8-9.3-2.1-3.9-12.8-9.6C1050.5,1368.7,1047.7,1365.7,1060.3,1366.8z"></path>
		<path class="st4" d="M1021.9,1044.1l-4-2.3c-4.3-1-4.1-0.9-8.7-0.9L1021.9,1044.1z"></path>
		<polygon class="st4" points="1021.9,1044.1 1021.9,1047.3 1025.7,1044.7   "></polygon>
		<path class="st1" d="M637,785.3l-2.6-41.4c0-13,2.3-11.6,2.6-23.3c15.5,0,31.1,5.2,46.6,5.2C682.6,736.9,656.4,783.7,637,785.3z     M693.9,702.5c-31.7-15.2-68,18.8-27-50.3c8.7-14.6,35.4-63.4,50.3-68.8C717.3,611.5,705.3,678.7,693.9,702.5z M732.8,536.7    c-14.3-61.5-84-16.2-110.8,5.7c-12,10-18.8,16.1-29.8,27.2c-12.8,13-23,41,16.2,31.8c-1-11.9-2.1-7.1-7.7-15.5    c15.3-10.3,55.1-62.1,101-62.1c13.1,0,12.9,17.3,12.9,25.9c0,6.5-7.8,11.5-11.8,16.6c-5.4,6.8-7.9,9.1-13,15.5l-24.9,34.6    c-25.7,40.9-23.7,45.8-40.9,78.3c-11.5-5.6-62.5-1.5-99.9-11.7c-8.2-2.2-24.4-4.8-24.4,6.5c0,18.5,22.2,18.7,49.2,23.3    c19.9,3.4,44,5.1,67.3,5.1c0,21.6-14.9,88.1,25.9,88.1c23.6,0,48.1-42.9,58.3-63.4c2.2-4.3,4.3-7.7,6.4-11.7    c67.7,0,120.3,18.1,170.9,18.1c-4.5,12.5-0.6-2.1-5.2,10.3c10.9-0.9,36.1-4.3,37.8-16.4c2.8-21.1-27.7-17.8-42.8-19.9    c-16.3-2.4-33.1-3.8-50.5-6.5l-99.8-11.5c0.3-12.3,7.8-32.5,10.6-46.4c2.8-13.8,7.2-33.5,7.6-49.3c1.6-54.9-17.1-41.8,67.2-106.3    l106.3-67.3c9.1,0,18.1,5.6,18.1-7.8c0-5.5-8.1-15.5-13-15.5c-21,0-79.5,42.2-97.3,55.5l-63.9,50    C745.2,524.7,741,531.3,732.8,536.7L732.8,536.7z"></path>
		<path class="st5" d="M961.4,1172.7c-5.8-143.3-54.4-208.3-96.1-286c-14.2,1.4-28.4,2.8-42.7,4.2c-4.5,142.4,2.4,298.1,32,480.3    c76.9,190.4,143,283.6,202.9,320.2C1028.7,1519.7,1012.5,1352.1,961.4,1172.7L961.4,1172.7z"></path>
		<polygon class="st6" points="744.6,680.4 776.4,598.9 837.7,642.2 872,838.5 863.2,871.6 813.5,874.2   "></polygon>
		<path class="st2" d="M836.6,1079.3V906.7c0-11.4,6.3-9.6,19.2-9.6c21.3,0,64.7,152.4,69.1,167.3c13.9,47,13.1,53.9,22.9,95.3    c17.8,75.3,28.4,122.1,38.7,197.7c4.6,33.3,10.7,67.6,18.1,100.1c7.7,33.4,14.2,64.6,20.7,97.5c3.8,19,18.9,86.8,18.9,102.5    c-31.5-21.1-103.9-127.8-121.9-172c-56.7-140.1-56.7-165-77.7-315.3C840.7,1140.4,836.6,1110.3,836.6,1079.3L836.6,1079.3z     M798.3,635.2c8.3,4.5,18.4,11.9,28.7,12.8c0,58.6,16.8,110.3,23.4,167.3c3.7,31.7,5.8,24.8-7.4,49.9c-20.4-4.9-6.1-4.5-25.6,0    l-31.6-102.6c-5.3-18.3-9-33.2-14.4-52.6c-6.4-22.2-14.3-35.5,4.5-49.3c0.4,14.5,9.4,66.4,24.5,71.7c31.9,11.3,7.4-51.1,7.1-52    L798.3,635.2L798.3,635.2z M804.7,986.6c0,162.9,14,335.7,73.9,485.1c31.6,78.6,92.6,176,159.6,233.3l13.4,12.4    c15.1,11.5,34.3,2.2,34.3-12.1c0-53.6-15.3-120.3-26.4-171.6c-10.2-47.9-23-95.8-31.6-147.3c-8.3-49.4-15.6-103-26.5-152.5    c-23-104.3-38.7-181.3-75.9-282c-3.9-10.4-8.1-20.4-13.4-31.4c-35.7-74.3-26.6-44.9-31-103.1c-2.9-38.3-24.9-117.3-28.2-150.7    c-5.6-56.8,4.7-28.4-34.3-55.2c-14.6-10-25.6-40.3-49.1-40.3c-19.5,0-6.9,31.7-22.7,73.1c-12.3,32.2-22.2,11.7-4.2,75.2    c11.8,42,31.4,122.6,47.1,154.2c24.5,49.1,20.4,14.3,15.2,77.8C804,962.3,804.7,975.7,804.7,986.6L804.7,986.6z"></path>
	</g>
</g>
</svg>